<svg width="893" height="365" viewBox="0 0 893 365" fill="none" xmlns="http://www.w3.org/2000/svg">
<path d="M577.785 112.294C617.749 111.729 637.268 104.629 653.637 91.1855C660.919 85.2054 667.526 78.0075 674.961 69.9073C675.7 69.103 676.446 68.2899 677.202 67.4681C685.622 58.3171 695.414 47.8937 708.836 36.2129L708.838 36.2117C744.194 5.40996 784.587 -0.598779 817.551 7.14488C850.759 14.9457 875.79 36.4676 881.385 60.0661C887.297 85.0253 886.109 106.365 878.834 119.728C875.247 126.318 870.214 130.927 863.783 133.261C857.312 135.608 849.059 135.782 838.851 132.801C819.594 127.167 794.193 129.75 779.997 134.345C776.437 135.498 773.313 136.859 771.107 138.418C770.011 139.193 768.93 140.164 768.201 141.377C767.42 142.676 767.005 144.35 767.573 146.126C768.098 147.768 769.288 148.931 770.479 149.741C771.693 150.567 773.212 151.236 774.94 151.8C778.402 152.929 783.294 153.82 789.761 154.444C814.505 156.832 849.836 170.837 871.016 194.12C881.537 205.686 888.435 219.388 889.031 235.001C889.628 250.611 883.945 268.625 868.37 288.854C846.032 317.854 816.442 324.401 788.306 320.643C759.991 316.861 733.386 302.627 718.049 290.446C716.93 289.558 715.819 288.673 714.714 287.793C700.387 276.387 687.003 265.733 671.456 257.902C654.581 249.403 635.239 244.254 609.276 244.618L609.275 244.618L609.325 248.117C609.275 244.618 609.274 244.618 609.271 244.618L609.26 244.618L609.216 244.619L609.041 244.621L608.349 244.631L605.64 244.67L595.301 244.817L557.907 245.351C526.68 245.796 484.368 246.399 440.027 247.031C351.345 248.295 254.548 249.673 222.087 250.13C214.017 250.243 208.312 250.168 204.389 250.099C203.865 250.09 203.369 250.081 202.901 250.072C201.629 250.048 200.564 250.028 199.708 250.022C198.612 250.015 197.571 250.024 196.798 250.137L196.792 250.138C196.508 250.18 195.63 250.308 194.818 250.878C194.319 251.228 193.686 251.858 193.391 252.85C193.098 253.836 193.282 254.698 193.493 255.243C193.833 256.12 194.443 256.694 194.624 256.863L194.635 256.874C194.907 257.13 195.212 257.373 195.456 257.564C195.627 257.697 195.805 257.833 195.99 257.974C196.937 258.699 198.058 259.557 199.254 260.8C201.968 263.622 205.065 268.458 204.384 277.016C203.686 285.796 198.985 298.788 185.1 317.627L185.098 317.629C155.517 357.81 112.713 367.855 77.5775 357.826C42.3582 347.773 14.9597 317.653 15.7338 277.106C16.5239 236.284 39.1997 211.482 63.3798 196.359C85.2499 182.681 108.066 177.106 116.621 175.016C117.569 174.785 118.341 174.596 118.918 174.443L125.408 172.73L120.289 168.39L118.025 171.059C120.289 168.39 120.287 168.389 120.286 168.388L120.283 168.385L120.274 168.377L120.249 168.357C120.23 168.34 120.203 168.318 120.17 168.291C120.104 168.237 120.012 168.162 119.894 168.068C119.659 167.88 119.321 167.617 118.886 167.294C118.017 166.648 116.758 165.761 115.153 164.756C111.949 162.751 107.333 160.259 101.666 158.303C90.3013 154.381 74.5938 152.596 57.7435 161.342L57.7417 161.343C51.3752 164.652 43.4074 163.56 35.0907 158.33C26.8049 153.118 18.7187 144.076 12.8045 132.791C0.977167 110.224 -1.69581 79.7278 18.7373 54.6973L16.0261 52.484L18.7373 54.6972C39.684 29.0363 67.1621 16.0967 95.1992 15.531C123.255 14.9649 152.167 26.7873 175.914 51.2243C225.475 102.227 288.84 118.495 345.98 117.673C374.247 117.272 432.212 115.926 483.092 114.682C508.536 114.06 532.214 113.463 549.531 113.021C558.19 112.801 565.259 112.619 570.162 112.492C572.614 112.429 574.525 112.379 575.823 112.345L577.301 112.307L577.678 112.297L577.764 112.295C577.771 112.295 577.778 112.294 577.785 112.294ZM197.812 257.064C197.821 257.062 197.832 257.061 197.844 257.059C197.771 257.075 197.753 257.072 197.812 257.064Z" stroke="black" stroke-width="7"/>
</svg>
