<svg width="894" height="365" viewBox="0 0 894 365" fill="none" xmlns="http://www.w3.org/2000/svg">
<path d="M118.599 170.918C120.216 169.011 120.215 169.01 120.214 169.009L120.211 169.007L120.204 169.001L120.182 168.982C120.164 168.967 120.14 168.947 120.109 168.922L120.047 168.871C119.993 168.827 119.925 168.772 119.845 168.708C119.618 168.527 119.289 168.271 118.863 167.955C118.013 167.323 116.776 166.451 115.196 165.462C112.04 163.487 107.494 161.032 101.914 159.107C90.7324 155.248 75.3221 153.501 58.778 162.088L58.7767 162.089C51.9783 165.622 43.6177 164.371 35.1321 159.034C26.6686 153.711 18.4717 144.522 12.4926 133.113C0.535182 110.298 -2.21812 79.3475 18.5365 53.9231L16.5998 52.3422L18.5365 53.923C39.6577 28.0483 67.4059 14.9613 95.7529 14.3894C124.113 13.8172 153.285 25.7703 177.205 50.3856C226.525 101.14 289.595 117.351 346.54 116.532C346.54 116.532 346.54 116.532 346.54 116.532L118.599 170.918ZM118.599 170.918L120.216 169.011M118.599 170.918L120.216 169.011M708.755 35.3159L708.754 35.3168C695.289 47.0344 685.467 57.4901 677.04 66.6493C676.286 67.4691 675.542 68.2796 674.806 69.0808C667.359 77.1934 660.8 84.3381 653.576 90.2709C637.444 103.519 618.178 110.59 578.34 111.153C578.334 111.153 578.329 111.153 578.324 111.153L708.755 35.3159ZM708.755 35.3159C744.367 4.29112 785.094 -1.78352 818.354 6.02955C851.788 13.8836 877.22 35.6032 882.932 59.6945C888.869 84.7588 887.731 106.389 880.286 120.065C876.6 126.837 871.391 131.631 864.698 134.059C857.977 136.497 849.5 136.643 839.146 133.62C820.125 128.054 794.933 130.605 780.879 135.155C777.358 136.295 774.343 137.619 772.258 139.093C771.22 139.827 770.261 140.702 769.631 141.75C768.965 142.859 768.637 144.235 769.099 145.679C769.53 147.028 770.524 148.03 771.615 148.773C772.723 149.526 774.145 150.16 775.824 150.707C779.185 151.804 783.993 152.686 790.431 153.307C815.373 155.714 850.952 169.805 872.329 193.305C882.969 205.002 889.997 218.919 890.604 234.821C891.212 250.721 885.415 268.958 869.737 289.322C847.131 318.669 817.15 325.286 788.747 321.492C760.216 317.681 733.447 303.355 718.001 291.087C716.887 290.203 715.782 289.323 714.682 288.447C700.336 277.027 687.03 266.435 671.58 258.654C654.853 250.229 635.671 245.114 609.864 245.476L609.863 245.476L609.899 247.976C609.863 245.476 609.862 245.476 609.86 245.476L609.848 245.476L609.804 245.477L609.629 245.479L608.937 245.489L606.228 245.528L595.889 245.675L558.495 246.209C527.268 246.654 484.956 247.257 440.615 247.889C351.933 249.153 255.136 250.531 222.675 250.988C214.591 251.101 208.875 251.026 204.946 250.957C204.416 250.948 203.916 250.938 203.445 250.93C202.179 250.906 201.124 250.886 200.275 250.881C199.165 250.873 198.202 250.885 197.516 250.985C197.251 251.024 196.575 251.127 195.966 251.555C195.598 251.814 195.137 252.274 194.923 252.994C194.711 253.709 194.843 254.337 194.999 254.74C195.258 255.408 195.735 255.854 195.894 256.004C196.13 256.226 196.403 256.445 196.645 256.633C196.808 256.76 196.98 256.892 197.161 257.031C198.11 257.756 199.295 258.662 200.549 259.965C203.43 262.96 206.662 268.069 205.955 276.954C205.235 285.997 200.416 299.168 186.478 318.079L186.478 318.08C156.643 358.606 113.404 368.786 77.8768 358.645C42.2901 348.487 14.5238 318.013 15.3079 276.945C16.1064 235.683 39.0559 210.61 63.4234 195.37C85.4417 181.599 108.415 175.989 116.957 173.903C117.9 173.673 118.667 173.485 119.237 173.335L123.872 172.111M708.755 35.3159L123.872 172.111M123.872 172.111L120.216 169.011M123.872 172.111L120.216 169.011" stroke="black" stroke-width="5"/>
</svg>
