<svg width="894" height="365" viewBox="0 0 894 365" fill="none" xmlns="http://www.w3.org/2000/svg">
<path d="M871.718 290.847C935.466 208.044 841.547 155.729 790.671 150.819C739.775 145.909 801.585 125.234 838.444 136.019C881.32 148.539 897.363 109.775 885.365 59.1177C873.357 8.47317 779.618 -29.7338 707.113 33.4309C652.831 80.6693 657.341 107.54 578.288 108.653C578.288 108.653 402.994 113.229 346.504 114.032C290.047 114.844 227.715 98.7774 178.998 48.6434C130.292 -1.47858 59.7153 -0.476812 16.5998 52.3422C-26.5168 105.16 28.4157 180.687 59.9297 164.307C91.4869 147.927 118.599 170.918 118.599 170.918C107.344 173.888 14.4475 192.173 12.8083 276.897C11.1904 361.64 127.551 402.338 188.491 319.562C244.769 243.203 157.765 254.4 222.71 253.487C287.633 252.574 609.899 247.976 609.899 247.976C660.736 247.263 685.03 268.094 716.446 293.045C747.885 318.014 825.17 351.275 871.718 290.847Z" fill="#FBAD36"/>
</svg>
